# xmcd CD database file
#
# Track frame offsets:
#	150
#	16089
#	35589
#	62739
#	80589
#	102789
#	127689
#	135939
#	160689
#	173364
#	198114
#	220014
#
# Disc length: 3147 seconds
#
# Revision: 0
# Processed by: cddbd v1.5.2PL0 Copyright (c) Steve Scherf et al.
# Submitted via: CDex 1.70beta2
#
DISCID=840c490c
DTITLE=Modea Calm Des Vision - Clarity
DYEAR=2007
DGENRE=New Age
TTITLE0=Clarity
TTITLE1=Sunday Sunday
TTITLE2=A Priori -1ere Gymnopedie-
TTITLE3=Buleria!
TTITLE4=Double Effect
TTITLE5=You Raise Me Up
TTITLE6=Green Carnival
TTITLE7=Rendezvous
TTITLE8=Coup De Vent
TTITLE9=Temhair
TTITLE10=Another Story
TTITLE11=Kagayaki
EXTD=YEAR: 2007
EXTT0=
EXTT1=
EXTT2=
EXTT3=
EXTT4=
EXTT5=
EXTT6=
EXTT7=
EXTT8=
EXTT9=
EXTT10=
EXTT11=
PLAYORDER=
